Coordinates
version=1
nRows=14
nColumns=24
inDegrees=yes

Units are S.I. units (second, meters, Newtons, ...)
Angles are in degrees.

endheader
time	pelvis_tilt	pelvis_list	pelvis_rotation	pelvis_tx	pelvis_ty	pelvis_tz	hip_flexion_r	hip_adduction_r	hip_rotation_r	knee_angle_r	ankle_angle_r	subtalar_angle_r	mtp_angle_r	hip_flexion_l	hip_adduction_l	hip_rotation_l	knee_angle_l	ankle_angle_l	subtalar_angle_l	mtp_angle_l	lumbar_extension	lumbar_bending	lumbar_rotation
      1.50000000	      6.19704971	     -0.16156125	     -3.37987053	      0.60040699	      1.03685054	      0.00412396	      5.64007365	     -6.63228395	     -5.74829694	    -68.65431594	     -3.34062571	     -0.00000747	      0.00000000	      6.67715487	      2.27697583	     -3.36940280	    -16.73099730	      2.60438284	     -0.00000170	      0.00000000	    -15.67336640	     -4.18950017	     -1.85053561
      1.51700000	      6.22659454	     -0.48717576	     -2.73180543	      0.59909114	      1.03949037	      0.00168876	      7.86751497	     -6.15687204	     -6.09541060	    -69.61127536	     -1.52887534	     -0.00000747	      0.00000000	      4.96069463	      2.18616618	     -2.62758503	    -15.57181709	      3.02846671	     -0.00000153	      0.00000000	    -15.74223395	     -3.55762769	     -2.64004621
      1.53300000	      6.26259301	     -0.79294715	     -2.16475634	      0.59786915	      1.04181475	     -0.00063929	      9.95207897	     -5.59460809	     -6.27801644	    -69.76006049	     -0.16663837	     -0.00000729	      0.00000000	      3.16175485	      2.07861444	     -1.98789753	    -14.26308753	      3.38451549	     -0.00000144	      0.00000000	    -15.83863582	     -3.00666284	     -3.59295403
      1.55000000	      6.07502136	     -0.88536558	     -1.76515525	      0.59551151	      1.04292609	     -0.00253465	     12.35182015	     -5.20887453	     -6.28495905	    -69.41052319	      0.82182675	     -0.00000661	      0.00000000	      1.82792208	      2.13247316	     -1.57852414	    -13.26152313	      3.79747946	     -0.00000130	      0.00000000	    -15.79018272	     -2.73690126	     -4.10101102
      1.56700000	      6.08483860	     -1.28877928	     -0.96117163	      0.59413998	      1.04434608	     -0.00453208	     14.02781009	     -4.55268678	     -6.81980244	    -67.93232184	      1.42130131	     -0.00000592	      0.00000000	      0.16961968	      1.81639207	     -0.73467999	    -12.13110948	      4.23319786	     -0.00000112	      0.00000000	    -15.87226896	     -2.05565493	     -4.92561282
      1.58300000	      6.01247317	     -1.51769750	     -0.51051397	      0.59212822	      1.04495888	     -0.00599096	     15.78229443	     -4.06078422	     -7.03140857	    -65.90279663	      1.81935368	     -0.00000500	      0.00000000	     -1.26725254	      1.64122181	     -0.25474016	    -11.20788635	      4.73241025	     -0.00000093	      0.00000000	    -15.91590940	     -1.63974883	     -5.45971863
      1.60000000	      6.00175370	     -1.73058415	     -0.24190482	      0.59095989	      1.04536080	     -0.00719164	     17.17940996	     -3.57391947	     -7.12379521	    -63.08996387	      2.09290787	     -0.00000445	      0.00000000	     -2.99288007	      1.46598492	      0.08039793	     -9.93689787	      5.12772006	     -0.00000079	      0.00000000	    -15.97023273	     -1.22263223	     -5.71235811
      1.61700000	      5.89832510	     -1.70193487	      0.12870222	      0.58807110	      1.04494312	     -0.00841791	     18.55422779	     -3.48706251	     -7.45548244	    -59.70492010	      2.34515172	     -0.00000412	      0.00000000	     -4.35922816	      1.51724228	      0.58653918	     -8.94496005	      5.50216981	     -0.00000076	      0.00000000	    -16.15181409	     -1.10588256	     -5.95155615
      1.63300000	      5.52242166	     -1.74232117	      0.27200474	      0.58602410	      1.04350049	     -0.00930585	     19.91624612	     -3.37460836	     -7.85590265	    -55.63771890	      2.56601148	     -0.00000426	      0.00000000	     -5.39205056	      1.50703576	      0.81447689	     -8.19042221	      6.10492789	     -0.00000064	      0.00000000	    -15.78935377	     -0.90859148	     -6.09302721
      1.65000000	      5.38265850	     -1.48604704	      0.21403142	      0.58367229	      1.04192066	     -0.01014003	     20.77934055	     -3.59032407	     -8.23963931	    -50.92929388	      2.73512068	     -0.00000484	      0.00000000	     -6.76847633	      1.84111853	      0.78480982	     -7.22305834	      6.56631953	     -0.00000046	      0.00000000	    -15.79760664	     -1.02848354	     -6.16405930
      1.66700000	      5.36539670	     -1.37630938	      0.29330733	      0.58215705	      1.04033009	     -0.01054679	     21.01834610	     -3.70408933	     -9.18622726	    -45.39336815	      2.68863115	     -0.00000548	      0.00000000	     -8.36917100	      1.95165477	      0.86042675	     -6.16082899	      7.02199915	     -0.00000023	      0.00000000	    -15.93787510	     -1.01881856	     -6.14895964
      1.68300000	      5.15428625	     -0.97211323	      0.21382774	      0.58024200	      1.03756414	     -0.01109183	     21.40339709	     -4.02570368	     -9.97039240	    -39.61664984	      2.49029711	     -0.00000586	      0.00000000	     -9.53070834	      2.41318904	      0.86935190	     -5.57141293	      7.71740934	     -0.00000001	      0.00000000	    -15.88233574	     -1.32168529	     -6.19456783
      1.70000000	      4.83940227	     -0.65541426	      0.17945867	      0.57922748	      1.03441544	     -0.01114728	     21.50119550	     -4.07868222	    -10.77572515	    -33.25239736	      2.17045645	     -0.00000577	      0.00000000	    -10.71423292	      2.73529354	      0.92861700	     -4.83444798	      8.39480741	      0.00000025	      0.00000000	    -15.58781563	     -1.54437626	     -6.28586636
      1.71700000	      4.94867740	     -0.15017616	      0.13153587	      0.57783471	      1.03169113	     -0.01099075	     20.98221726	     -4.11894309	    -11.05577023	    -26.62876548	      1.75540434	     -0.00000516	      0.00000000	    -12.29428340	      3.26419517	      1.03591922	     -4.17877058	      9.01729789	      0.00000025	      0.00000000	    -15.88498553	     -2.01593295	     -6.27562283
